Coordinates
version=1
nRows=10
nColumns=23
inDegrees=yes

Units are S.I. units (second, meters, Newtons, ...)
Angles are in degrees.

endheader
time	pelvis_tilt	pelvis_list	pelvis_rotation	pelvis_tx	pelvis_ty	pelvis_tz	hip_flexion_r	hip_adduction_r	hip_rotation_r	knee_angle_r	knee_angle_r_beta	ankle_angle_r	subtalar_angle_r	mtp_angle_r	hip_flexion_l	hip_adduction_l	hip_rotation_l	knee_angle_l	knee_angle_l_beta	ankle_angle_l	subtalar_angle_l	mtp_angle_l
    120.00000000	     -7.20035168	      6.07166187	      4.82258974	      0.00351452	      1.34599078	      0.23006095	     30.61063337	    -10.31181482	     -5.38853548	     28.01387838	      0.48893441	     -7.39030876	      0.00000000	      0.00000000	     70.54317658	     -4.92149613	     -6.53480255	    110.60010299	      1.93033595	     13.35258896	      0.00000000	      0.00000000
    120.00888900	     -7.11740644	      5.95315923	      4.83226049	      0.00322689	      1.34648006	      0.23013325	     30.06084661	    -10.18330886	     -5.39133482	     28.48692398	      0.49719062	     -7.49473406	      0.00000000	      0.00000000	     71.12324944	     -4.97386973	     -6.57106848	    110.17353566	      1.92289095	     13.63299075	      0.00000000	      0.00000000
    120.01777800	     -7.12847976	      5.91381626	      4.86712144	      0.00279790	      1.34640722	      0.22964541	     29.92116262	    -10.27563992	     -5.54053280	     29.70981813	      0.51853415	     -7.21395992	      0.00000000	      0.00000000	     71.70530724	     -4.86229070	     -6.71215436	    109.78919461	      1.91618293	     15.41907013	      0.00000000	      0.00000000
    120.02666700	     -7.13576801	      5.83110455	      4.80559384	      0.00230165	      1.34655899	      0.22949382	     29.86695827	    -10.23461116	     -5.45312632	     31.04312411	      0.54180473	     -6.70644418	      0.00000000	      0.00000000	     72.16335207	     -4.89059800	     -6.87229060	    109.08698450	      1.90392705	     16.32604946	      0.00000000	      0.00000000
    120.03555600	     -6.95420947	      5.50746688	      4.78467469	      0.00164869	      1.34693832	      0.22915211	     29.66734351	     -9.99655929	     -5.56991786	     32.45393076	      0.56642795	     -6.76284195	      0.00000000	      0.00000000	     72.42038468	     -4.95166067	     -6.75554129	    108.23786332	      1.88910709	     16.75998354	      0.00000000	      0.00000000
    120.04444400	     -7.13506945	      5.58256895	      4.58660001	      0.00109637	      1.34688463	      0.22912742	     30.16437805	    -10.09317315	     -5.20944434	     34.50380743	      0.60220504	     -5.44525824	      0.00000000	      0.00000000	     72.74231670	     -5.01581378	     -7.17985980	    107.11479873	      1.86950592	     17.80315363	      0.00000000	      0.00000000
    120.05333300	     -6.91489497	      5.14495690	      4.53424316	      0.00035560	      1.34722680	      0.22869093	     30.16160628	     -9.77045680	     -5.33947451	     36.34847831	      0.63440062	     -5.50903404	      0.00000000	      0.00000000	     72.76938476	     -5.12097547	     -6.97476492	    105.94416342	      1.84907447	     18.15199057	      0.00000000	      0.00000000
    120.06222200	     -7.13241280	      5.30249802	      4.24184390	     -0.00026106	      1.34714436	      0.22875754	     30.97462431	     -9.92160593	     -4.77529486	     38.86922643	      0.67839598	     -3.96297651	      0.00000000	      0.00000000	     72.84389699	     -5.21804162	     -7.53992869	    104.41247264	      1.82234143	     18.85395865	      0.00000000	      0.00000000
    120.07111100	     -7.14499370	      5.10938852	      4.03270239	     -0.00092239	      1.34716777	      0.22854422	     31.55416674	     -9.78338188	     -4.52279950	     41.31704754	      0.72111852	     -3.16312747	      0.00000000	      0.00000000	     72.74794863	     -5.35110378	     -7.66870378	    102.82687336	      1.79466750	     19.17331242	      0.00000000	      0.00000000
    120.08000000	     -6.89610218	      4.49977899	      3.93969695	     -0.00157340	      1.34750488	      0.22796953	     31.77808409	     -9.30968916	     -4.64473965	     43.57261916	      0.76048567	     -3.27013510	      0.00000000	      0.00000000	     72.42276152	     -5.51729488	     -7.29782188	    101.20762828	      1.76640634	     19.34921336	      0.00000000	      0.00000000
